# Blender v2.80 (sub 75) OBJ File: ''
# www.blender.org
mtllib finger4.mtl
o object0.006
v 0.461978 10.865318 3.514281
v 0.794621 10.421580 4.121005
v 0.537278 11.578070 3.684592
v 0.901067 11.293190 4.212534
v -0.188958 11.376187 3.153155
v -0.153669 12.042019 3.405246
v -0.594639 14.238961 4.207560
v -0.707782 14.162385 4.815541
v -0.381031 14.788552 4.947575
v -0.297782 14.931771 4.419231
v -0.771486 13.468051 3.983089
v -0.905017 13.376056 4.580962
v 0.012313 14.220817 3.999270
v -0.111530 13.503823 3.785009
v 0.095876 15.327209 4.604778
v 0.504681 15.333754 4.545125
v 0.203952 14.898928 4.241865
v 0.995241 14.928129 5.099952
v 1.038367 14.443544 5.090422
v 1.173592 14.515583 4.689694
v 1.040308 15.078755 4.827931
v 0.641213 15.046327 5.265405
v 0.526371 14.533622 5.379543
v 0.545774 10.344767 4.675922
v -0.148089 10.327113 4.918395
v -0.539528 5.913203 4.522581
v 0.866423 12.093301 4.849243
v 0.176468 12.082891 5.225082
v -0.004448 11.275860 5.050244
v 0.689641 11.308118 4.714123
v 1.043195 12.081373 4.362185
v 1.147089 12.829382 4.490599
v 0.988430 12.810948 4.959639
v -0.647442 12.347212 4.979962
v -0.807705 11.449736 4.755676
v -1.018650 12.580914 4.319367
v -1.109256 11.724770 4.053330
v -0.222857 13.996776 5.292480
v -0.028412 14.630536 5.347851
v 0.443620 13.734631 5.367334
v 1.061609 13.610291 5.044671
v 0.327036 12.878316 5.302843
v 1.224515 13.646947 4.591640
v 0.847380 15.160670 4.560303
v 0.784197 14.789657 4.372952
v 0.227390 15.043878 5.296631
v 0.661800 15.323303 4.942475
v 0.123721 15.242420 4.987556
v 0.766963 14.101524 4.178413
v 0.696985 13.223115 4.019105
v 0.615636 12.373846 3.867555
v -0.160329 12.773623 3.619757
v -0.816045 12.690619 3.781834
v -0.789562 11.959387 3.547432
v -0.849710 10.372184 4.528574
v -1.106792 10.578079 3.810629
v -0.785327 11.092666 3.290350
v -0.440258 13.159492 5.159093
vn 0.7535 0.0938 -0.6507
vn 0.6761 0.1085 -0.7288
vn 0.9875 -0.1122 -0.1105
vn 0.9969 -0.0791 -0.0010
vn 0.1939 0.2916 -0.9367
vn 0.1156 0.2711 -0.9556
vn -0.7019 0.4146 -0.5791
vn -0.9099 0.2582 0.3247
vn -0.7765 0.4998 0.3837
vn -0.6121 0.6363 -0.4696
vn -0.7094 0.2904 -0.6422
vn -0.9634 0.1362 0.2308
vn -0.0063 0.3030 -0.9530
vn 0.0194 0.2388 -0.9709
vn -0.3770 0.9050 -0.1970
vn 0.1458 0.8592 -0.4905
vn 0.0143 0.4356 -0.9000
vn 0.7172 0.3069 0.6256
vn 0.7647 0.0381 0.6432
vn 0.9696 0.1556 -0.1889
vn 0.8184 0.5739 0.0291
vn 0.2791 0.4703 0.8372
vn 0.2249 0.0392 0.9736
vn 0.7279 -0.2401 0.6423
vn 0.0783 -0.1894 0.9788
vn 0.0165 -0.1843 0.9827
vn 0.7075 -0.2155 0.6731
vn 0.9788 -0.1154 -0.1694
vn 0.9754 -0.0722 -0.2083
vn 0.7434 -0.1724 0.6462
vn -0.6274 -0.0608 0.7763
vn -0.7029 -0.0865 0.7060
vn -0.9905 0.0961 0.0983
vn -0.9979 0.0613 -0.0198
vn -0.4488 0.0272 0.8932
vn -0.3634 0.2261 0.9038
vn 0.1669 -0.0754 0.9831
vn 0.7534 -0.0783 0.6529
vn 0.1200 -0.1315 0.9840
vn 0.9765 0.0227 -0.2144
vn 0.5609 0.5742 -0.5964
vn 0.5218 0.2816 -0.8052
vn -0.2138 0.5426 0.8123
vn 0.2530 0.9147 0.3151
vn -0.3785 0.8274 0.4149
vn 0.5151 0.1633 -0.8414
vn 0.5456 0.1069 -0.8312
vn 0.6016 0.1057 -0.7917
vn 0.0676 0.2349 -0.9697
vn -0.6694 0.2395 -0.7032
vn -0.6358 0.2346 -0.7353
vn -0.7158 0.2100 -0.6660
vn -0.9991 0.0364 0.0232
vn 0.6721 -0.1526 0.7246
vn -0.5342 -0.0338 0.8447
vn -0.0472 -0.1300 0.9904
vn -0.7363 -0.0827 0.6716
usemtl default.006
s 1
f 1//1 3//2 4//3 2//4
f 1//1 5//5 6//6 3//2
f 7//7 8//8 9//9 10//10
f 7//7 11//11 12//12 8//8
f 7//7 13//13 14//14 11//11
f 15//15 16//16 17//17 10//10
f 18//18 19//19 20//20 21//21
f 18//18 22//22 23//23 19//19
f 27//24 28//25 29//26 30//27
f 27//24 31//28 32//29 33//30
f 34//31 35//32 29//26 28//25
f 34//31 36//33 37//34 35//32
f 38//35 39//36 9//9 8//8
f 38//35 40//37 23//23 39//36
f 41//38 40//37 42//39 33//30
f 41//38 43//40 20//20 19//19
f 44//41 45//42 17//17 16//16
f 46//43 22//22 47//44 48//45
f 46//43 39//36 23//23 22//22
f 49//46 45//42 20//20 43//40
f 49//46 50//47 14//14 13//13
f 51//48 31//28 4//3 3//2
f 51//48 50//47 32//29 31//28
f 51//48 52//49 14//14 50//47
f 53//50 36//33 12//12 11//11
f 53//50 54//51 37//34 36//33
f 57//52 54//51 6//6 5//5
f 57//52 56//53 37//34 54//51
f 2//4 4//3 30//27 24//54
f 3//2 6//6 52//49 51//48
f 10//10 17//17 13//13 7//7
f 10//10 9//9 48//45 15//15
f 8//8 12//12 58//55 38//35
f 11//11 14//14 52//49 53//50
f 13//13 17//17 45//42 49//46
f 48//45 47//44 16//16 15//15
f 48//45 9//9 39//36 46//43
f 16//16 47//44 21//21 44//41
f 21//21 47//44 22//22 18//18
f 21//21 20//20 45//42 44//41
f 19//19 23//23 40//37 41//38
f 30//27 29//26 25//56 24//54
f 30//27 4//3 31//28 27//24
f 25//56 29//26 35//32 55//57
f 33//30 42//39 28//25 27//24
f 33//30 32//29 43//40 41//38
f 28//25 42//39 58//55 34//31
f 35//32 37//34 56//53 55//57
f 58//55 42//39 40//37 38//35
f 58//55 12//12 36//33 34//31
f 43//40 32//29 50//47 49//46
f 52//49 6//6 54//51 53//50
