# Blender v2.80 (sub 75) OBJ File: ''
# www.blender.org
mtllib finger2.mtl
o object0.003
v -0.245049 11.779506 -3.478876
v -0.421958 14.347900 -6.243793
v 0.816052 17.359205 -2.575037
v 0.901568 16.808044 -2.686333
v 0.525240 16.805180 -3.029302
v 0.547442 17.499540 -2.720814
v 0.891986 17.502590 -2.268729
v 1.033819 16.881531 -2.197293
v -0.821288 13.917142 -2.696813
v 0.126657 13.681272 -2.807929
v -0.030195 12.327325 -2.618981
v -1.016839 12.336879 -2.390792
v -0.570111 15.376907 -2.983336
v 0.300134 15.010612 -3.004867
v -1.528780 14.361402 -2.048246
v -1.236390 15.855289 -2.339155
v -1.278328 13.240235 0.323859
v 0.837428 16.132782 -1.410972
v 1.116038 16.055895 -2.124232
v 0.830736 17.014948 -1.720579
v 0.788285 15.238291 -1.275409
v 1.165944 15.044737 -1.985973
v 0.017319 16.533052 -1.169361
v -0.309205 15.476978 -0.934548
v 0.836426 17.558022 -1.984578
v 0.570243 17.760319 -1.945603
v 0.385817 17.403784 -1.569474
v 0.233030 17.591738 -2.735688
v 0.174442 17.828716 -2.399095
v 0.586293 17.777094 -2.327408
v -0.272593 16.287815 -3.087957
v 0.449695 15.968912 -3.113137
v -0.829843 16.751585 -2.420100
v -0.319860 17.456259 -2.443385
v 0.012707 17.084463 -2.966304
v 0.603407 11.255671 -2.050564
v -0.139184 11.362519 -2.440796
v 0.736451 12.295902 -2.255614
v 0.891101 11.182720 -1.312040
v 0.229846 17.849300 -2.027839
v -0.142953 17.584646 -1.796798
v -0.726208 16.868168 -1.473563
v -1.118136 15.894203 -1.274256
v 0.966393 15.964719 -2.714377
v 0.936892 14.956769 -2.604843
v -1.515330 11.203957 -0.398926
v -1.850123 10.868255 -1.294343
v -0.548077 11.720114 -0.249279
v -0.610046 12.692144 -0.467147
v -1.632436 12.756130 -0.674831
v -1.462917 14.544936 -1.032751
v -0.518154 14.059966 -0.691283
v 0.644356 13.860155 -1.010114
v 1.012136 13.710232 -1.739470
v 0.801746 13.633548 -2.416259
v 0.949393 12.413130 -1.529985
v -1.107662 10.975043 -2.098102
v -1.832611 12.660889 -1.686302
v 0.507590 11.640289 -0.637509
v 0.518599 12.720624 -0.801691
vn 0.7589 0.3822 -0.5273
vn 0.8264 0.1561 -0.5411
vn 0.3625 0.2227 -0.9050
vn 0.4218 0.5567 -0.7157
vn 0.8632 0.4875 -0.1309
vn 0.9880 0.1536 0.0174
vn -0.4394 -0.0927 -0.8935
vn 0.1689 -0.1652 -0.9717
vn 0.1161 -0.1811 -0.9766
vn -0.4698 -0.1269 -0.8736
vn -0.4080 -0.0222 -0.9127
vn 0.2284 -0.1508 -0.9618
vn -0.9283 0.0905 -0.3606
vn -0.9017 0.2217 -0.3712
vn 0.7027 0.1526 0.6950
vn 0.9966 0.0630 0.0539
vn 0.7589 0.2640 0.5953
vn 0.6585 0.0811 0.7482
vn 0.9966 -0.0349 0.0742
vn 0.0920 0.3038 0.9483
vn 0.0325 0.1962 0.9800
vn 0.7776 0.5015 0.3792
vn 0.3834 0.8248 0.4156
vn 0.2076 0.4983 0.8418
vn -0.0506 0.6433 -0.7639
vn -0.1914 0.9187 -0.3455
vn 0.4480 0.8508 -0.2747
vn -0.3587 0.1545 -0.9206
vn 0.2986 -0.0170 -0.9542
vn -0.8216 0.4338 -0.3699
vn -0.6728 0.6507 -0.3520
vn -0.2639 0.3977 -0.8788
vn 0.7732 -0.1889 -0.6053
vn 0.0798 -0.1963 -0.9773
vn 0.7517 -0.1614 -0.6394
vn -0.1640 0.9496 0.2670
vn -0.4529 0.7585 0.4686
vn -0.6284 0.5335 0.5661
vn -0.7203 0.3415 0.6038
vn 0.8236 -0.0114 -0.5671
vn 0.7870 -0.1334 -0.6024
vn -0.7628 0.1089 0.6374
vn 0.0176 0.1844 0.9827
vn 0.0436 0.1779 0.9831
vn -0.7093 0.1636 0.6856
vn -0.7376 0.2422 0.6303
vn 0.0297 0.1772 0.9837
vn 0.6363 0.0752 0.7678
vn 0.9932 -0.0632 0.0981
vn 0.7682 -0.1536 -0.6215
vn 0.9942 -0.0427 0.0988
vn -0.5749 -0.1364 -0.8067
vn -0.9706 -0.0514 -0.2353
vn -0.9522 0.0012 -0.3056
vn 0.6788 0.1171 0.7249
vn 0.6340 0.1046 0.7662
vn 0.9973 -0.0495 0.0548
usemtl default.003
s 1
f 3//1 4//2 5//3 6//4
f 3//1 7//5 8//6 4//2
f 9//7 10//8 11//9 12//10
f 9//7 13//11 14//12 10//8
f 9//7 15//13 16//14 13//11
f 18//15 19//16 8//6 20//17
f 18//15 21//18 22//19 19//16
f 18//15 23//20 24//21 21//18
f 25//22 20//17 8//6 7//5
f 25//22 26//23 27//24 20//17
f 28//25 29//26 30//27 6//4
f 31//28 32//29 14//12 13//11
f 31//28 33//30 34//31 35//32
f 36//33 37//34 11//9 38//35
f 40//36 41//37 27//24 26//23
f 42//38 41//37 34//31 33//30
f 42//38 43//39 24//21 23//20
f 44//40 32//29 5//3 4//2
f 44//40 45//41 14//12 32//29
f 46//42 48//43 49//44 50//45
f 51//46 43//39 16//14 15//13
f 51//46 52//47 24//21 43//39
f 53//48 54//49 22//19 21//18
f 55//50 38//35 11//9 10//8
f 55//50 54//49 56//51 38//35
f 57//52 47//53 58//54 12//10
f 59//55 60//56 49//44 48//43
f 6//4 30//27 7//5 3//1
f 6//4 5//3 35//32 28//25
f 4//2 8//6 19//16 44//40
f 7//5 30//27 26//23 25//22
f 12//10 58//54 15//13 9//7
f 12//10 11//9 37//34 57//52
f 10//8 14//12 45//41 55//50
f 13//11 16//14 33//30 31//28
f 15//13 58//54 50//45 51//46
f 20//17 27//24 23//20 18//15
f 19//16 22//19 45//41 44//40
f 21//18 24//21 52//47 53//48
f 23//20 27//24 41//37 42//38
f 26//23 30//27 29//26 40//36
f 35//32 34//31 29//26 28//25
f 35//32 5//3 32//29 31//28
f 29//26 34//31 41//37 40//36
f 33//30 16//14 43//39 42//38
f 38//35 56//51 39//57 36//33
f 39//57 56//51 60//56 59//55
f 45//41 22//19 54//49 55//50
f 50//45 58//54 47//53 46//42
f 50//45 49//44 52//47 51//46
f 52//47 49//44 60//56 53//48
f 60//56 56//51 54//49 53//48
